<?xml version="1.0" encoding="utf-8"?>
<!-- Generator: Adobe Illustrator 22.1.0, SVG Export Plug-In . SVG Version: 6.00 Build 0)  -->
<svg version="1.1" id="图层_1" xmlns="http://www.w3.org/2000/svg" xmlns:xlink="http://www.w3.org/1999/xlink" x="0px" y="0px"
	 viewBox="0 0 480 240" style="enable-background:new 0 0 480 240;" xml:space="preserve">
<style type="text/css">
	.st0{fill:url(#Fill-1_1_);}
	.st1{fill:url(#矩形_9_);}
	.st2{fill:url(#矩形_10_);}
	.st3{fill:#F0F2F5;stroke:url(#矩形_11_);}
	.st4{fill:#979BA5;stroke:url(#矩形_12_);}
	.st5{fill:#979BA5;stroke:url(#矩形备份-9_1_);}
	.st6{fill:#979BA5;stroke:url(#形状结合_6_);}
	.st7{fill:url(#形状结合_8_);}
	.st8{fill:url(#形状结合备份-3_1_);}
	.st9{fill:url(#形状结合_9_);}
	.st10{fill:#E1E3E6;}
	.st11{fill:#F0F2F5;}
	.st12{fill:#F4F4F4;}
	.st13{fill:url(#路径-5_1_);}
	.st14{fill:url(#形状结合_10_);}
	.st15{fill:url(#形状结合备份-4_1_);}
	.st16{fill:#C7C9CC;}
	.st17{fill:#E5E7E9;}
	.st18{fill:#ECEEF0;}
	.st19{fill:#C4C6CC;}
	.st20{fill:#EDEEF3;}
	.st21{fill:#343434;fill-opacity:3.000000e-02;}
</style>
<g id="Exception_x2F_异常提示" transform="translate(-870.000000, -1335.000000)">
	<g id="_x34_04" transform="translate(357.000000, 1216.000000)">
		<g id="_x34_04-插图" transform="translate(513.000000, 119.000000)">
			<g id="编组-13" transform="translate(10.000000, 11.036648)">
				<g id="_x34_04主体" transform="translate(94.324022, 42.538771)">
					<linearGradient id="Fill-1_1_" gradientUnits="userSpaceOnUse" x1="141.3912" y1="55.6869" x2="152.3307" y2="117.7277">
						<stop  offset="0" style="stop-color:#F8FCFD"/>
						<stop  offset="1" style="stop-color:#F2F4F7"/>
					</linearGradient>
					<path id="Fill-1" class="st0" d="M45.3,72.9c29.3-6.6,71.5-9.6,100.2-8.1s52.4,6.5,54.1,5.3c5.7-3.8,17.9-5.5,17.3-4
						s-8.5,6.1-6,6.8c2.5,0.7,28,3.7,38.6,5.9c10.6,2.2,17.4,4.4,19.7,4.4c2.3,0,5.9-3.1,21.3-1.6c0.3,0.6-3.4,0.8-6.8,2.5
						s-5.9,1.6-5.9,2s1.9-0.6,5.9,2c4,2.5,11,3.4,11,4s-8.9,3.6-23.8-1.1c-3.8-1.2-12.6,9.2-53.1,12.1s-109.1,5.2-109.1,5.2
						s4.1,5.3,10.1,6.8c0.3,0.5-2.4,2.5-14,0.3s-17.9-7.1-17.9-7.1s-23.1-1.5-31.8-2.9s-18.7-5.2-25.6-5.9S-8.5,95,3.3,86.9
						C3.3,86.9,16,79.5,45.3,72.9z"/>

						<linearGradient id="矩形_9_" gradientUnits="userSpaceOnUse" x1="304.8467" y1="101.2492" x2="304.8467" y2="100.2546" gradientTransform="matrix(93.3907 0 0 -93.4627 -28335.9453 9463.0273)">
						<stop  offset="0" style="stop-color:#ECEEF0"/>
						<stop  offset="1" style="stop-color:#D7D9DB"/>
					</linearGradient>
					<path id="矩形_1_" class="st1" d="M89.2,0h89.4c1.1,0,2,0.9,2,2v89.5c0,1.1-0.9,2-2,2H89.2c-1.1,0-2-0.9-2-2V2
						C87.2,0.9,88.1,0,89.2,0z"/>

						<linearGradient id="矩形_10_" gradientUnits="userSpaceOnUse" x1="303.8915" y1="101.6532" x2="303.8915" y2="100.653" gradientTransform="matrix(81.7169 0 0 -81.7799 -24699.2246 8318.9902)">
						<stop  offset="0" style="stop-color:#F5F7FA"/>
						<stop  offset="1" style="stop-color:#EBEDF0"/>
					</linearGradient>
					<path id="矩形_2_" class="st2" d="M94,5.8h79.7c0.6,0,1,0.4,1,1v79.8c0,0.6-0.4,1-1,1H94c-0.6,0-1-0.4-1-1V6.8
						C93,6.3,93.5,5.8,94,5.8z"/>

						<linearGradient id="矩形_11_" gradientUnits="userSpaceOnUse" x1="299.4186" y1="103.5052" x2="299.4186" y2="102.5599" gradientTransform="matrix(51.5323 0 0 -51.5728 -15295.877 5360.9736)">
						<stop  offset="0" style="stop-color:#E1E2E6"/>
						<stop  offset="1" style="stop-color:#F7F9FC"/>
					</linearGradient>
					<path id="矩形_3_" class="st3" d="M109.1,20.9h49.5c0.6,0,1,0.4,1,1v49.6c0,0.6-0.4,1-1,1h-49.5c-0.6,0-1-0.4-1-1V21.9
						C108.1,21.4,108.6,20.9,109.1,20.9z"/>

						<linearGradient id="矩形_12_" gradientUnits="userSpaceOnUse" x1="195.4879" y1="119.2237" x2="195.4879" y2="118.2566" gradientTransform="matrix(5.3777 0 0 -12.6828 -928.3755 1546.8516)">
						<stop  offset="0" style="stop-color:#E1E2E6"/>
						<stop  offset="1" style="stop-color:#F0F2F5"/>
					</linearGradient>
					<rect id="矩形_4_" x="120.2" y="34.5" class="st4" width="5.4" height="12.7"/>

						<linearGradient id="矩形备份-9_1_" gradientUnits="userSpaceOnUse" x1="195.4901" y1="119.2237" x2="195.4901" y2="118.2566" gradientTransform="matrix(5.3777 0 0 -12.6828 -906.4871 1546.8516)">
						<stop  offset="0" style="stop-color:#E1E2E6"/>
						<stop  offset="1" style="stop-color:#F0F2F5"/>
					</linearGradient>
					<rect id="矩形备份-9" x="142.1" y="34.5" class="st5" width="5.4" height="12.7"/>

						<linearGradient id="形状结合_6_" gradientUnits="userSpaceOnUse" x1="247.566" y1="125.4514" x2="247.566" y2="124.4844" gradientTransform="matrix(9.7554 0 0 -9.7621 -2281.2051 1276.906)">
						<stop  offset="0" style="stop-color:#E1E2E6"/>
						<stop  offset="1" style="stop-color:#F0F2F5"/>
					</linearGradient>
					<path id="形状结合" class="st6" d="M129,56.7L129,56.7c0.1-2.6,2.3-4.7,4.9-4.7c2.6,0,4.7,2,4.9,4.7v0.2v4.9H129v-0.5v-4.4
						V56.7z"/>

						<linearGradient id="形状结合_8_" gradientUnits="userSpaceOnUse" x1="302.9761" y1="101.2375" x2="302.9761" y2="100.3016" gradientTransform="matrix(72.9615 0 0 -93.4627 -21879.7441 9463.0273)">
						<stop  offset="0" style="stop-color:#EBEDF0;stop-opacity:0.9917"/>
						<stop  offset="1" style="stop-color:#E1E3E6"/>
					</linearGradient>
					<path id="形状结合_1_" class="st7" d="M244.8,0h2.9v58.4h14.6v17.5h-14.6v17.5h-20.4V75.9h-37.9V58.4L227.3,0H244.8z
						 M227.3,28.2l-18.8,30.3h18.8V28.2z"/>

						<linearGradient id="形状结合备份-3_1_" gradientUnits="userSpaceOnUse" x1="302.9756" y1="101.2375" x2="302.9756" y2="100.3016" gradientTransform="matrix(72.9615 0 0 -93.4627 -22063.6074 9463.0273)">
						<stop  offset="0" style="stop-color:#EBEDF0;stop-opacity:0.9917"/>
						<stop  offset="1" style="stop-color:#E1E3E6"/>
					</linearGradient>
					<path id="形状结合备份-3" class="st8" d="M60.9,0h2.9v58.4h14.6v17.5H63.8v17.5H43.4V75.9H5.5V58.4L43.4,0H60.9z
						 M43.4,28.2L24.6,58.4h18.8V28.2z"/>

						<linearGradient id="形状结合_9_" gradientUnits="userSpaceOnUse" x1="299.0466" y1="107.2827" x2="299.0535" y2="107.011" gradientTransform="matrix(50.0035 0 0 -28.6053 -14857.7529 3216.7395)">
						<stop  offset="0" style="stop-color:#FBFCFD"/>
						<stop  offset="1" style="stop-color:#F0F2F5"/>
					</linearGradient>
					<path id="形状结合_2_" class="st9" d="M99.6,137.3c11.7,0,21.2,5.6,21.2,12.4c0,6.9-9.5,12.4-21.2,12.4
						c-4.4,0-8.5-0.8-11.9-2.1l-7,5.9l-1.9-2.2l6-5.1c-3.9-2.3-6.4-5.4-6.4-8.9c0-0.2,0-0.5,0-0.7l-5.8,5.1l-1.9-2.2l15.4-13.4
						l1.1,1.2C90.7,138.1,95,137.3,99.6,137.3z"/>
					<rect id="矩形_5_" x="225.8" y="87.6" class="st10" width="23.3" height="5.8"/>
					<rect id="矩形_6_" x="227.3" y="86.2" class="st11" width="20.4" height="1.5"/>
					<rect id="矩形_7_" x="41.9" y="87.6" class="st10" width="23.3" height="5.8"/>
					<rect id="矩形_8_" x="43.4" y="86.2" class="st11" width="20.4" height="1.5"/>
					<path id="路径-4" class="st11" d="M0,0"/>
					<path id="路径-8" class="st12" d="M115.6,134.9c2.4-2.2,9.7-3.4,21.9-3.4c6.4,0,11,0.7,39.9,5.7c2.9,0.5,5.3,0.9,7.7,1.3
						c25.8,4.3,40.8,5.7,48.6,3.3l-0.4-1.4c-7.5,2.2-22.5,0.9-48-3.4c-2.3-0.4-4.8-0.8-7.6-1.3c-29.1-5.1-33.6-5.8-40.2-5.8
						c-12.6,0-20.1,1.2-22.9,3.8L115.6,134.9z"/>

						<linearGradient id="路径-5_1_" gradientUnits="userSpaceOnUse" x1="307.1105" y1="103.481" x2="307.1105" y2="102.4922" gradientTransform="matrix(141.25 0 0 -52.0962 -43201.7227 5481.3613)">
						<stop  offset="0" style="stop-color:#DCDEE5"/>
						<stop  offset="1" style="stop-color:#979BA5"/>
					</linearGradient>
					<path id="路径-5" class="st13" d="M225.8,89.8h-20c-6.9,0-10.7,3.1-8,7.5c2.7,4.6,11.9,9.7,27.1,14.4
						c15.5,4.8,24.9,15.5,21,22.5c-4.5,8.1-24.4,8.9-56.3-0.8c-48.4-14.6-75.8-16.1-82.6-4.1l1.3,0.7c6.2-11.1,33.2-9.7,80.9,4.7
						c32.5,9.8,53,9.1,58,0.1c4.5-8-5.6-19.5-21.9-24.6c-14.8-4.6-23.8-9.6-26.2-13.7c-1.8-3.1,0.8-5.3,6.8-5.3h20v-1.4H225.8z"/>

						<linearGradient id="形状结合_10_" gradientUnits="userSpaceOnUse" x1="294.1835" y1="101.4578" x2="294.7074" y2="101.4022" gradientTransform="matrix(37.7993 7.3474 7.6337 -39.272 -11803.8252 1959.452)">
						<stop  offset="0" style="stop-color:#E7E9EB;stop-opacity:0.9365"/>
						<stop  offset="1" style="stop-color:#CDCFD1"/>
					</linearGradient>
					<path id="形状结合_3_" class="st14" d="M111.7,125.2c4,4.9,4.7,11.3,2.4,13.5l-0.1,0.1l-5.5,5.6c0.6,2.9,0.5,5.3-1.1,6.7
						l0,0l0,0l-8.2,8.7l-21.8-30.6l8.3-4.8v0.1c1.7-0.9,4.1-0.6,6.7,0.4l6.8-4.2l0.1-0.1C102,118.7,107.8,120.3,111.7,125.2z"/>

						<linearGradient id="形状结合备份-4_1_" gradientUnits="userSpaceOnUse" x1="295.4054" y1="82.3197" x2="296.1287" y2="82.2994" gradientTransform="matrix(23.8243 29.4206 15.8614 -12.8443 -8255.8438 -7504.8457)">
						<stop  offset="0" style="stop-color:#EBEDEF"/>
						<stop  offset="1" style="stop-color:#D8DADC"/>
					</linearGradient>
					<path id="形状结合备份-4" class="st15" d="M103.3,132.4c5.9,7.2,7.2,15.4,4,18.9l0,0l-8.1,8.5L76,129.9l9.4-5.5l0,0
						C89.5,122.1,97.5,125.2,103.3,132.4z"/>

						<ellipse id="椭圆形备份-2" transform="matrix(0.7771 -0.6293 0.6293 0.7771 -71.7573 87.3809)" class="st16" cx="87.5" cy="145" rx="9.5" ry="19"/>

						<g id="编组-5" transform="translate(85.288705, 155.695465) rotate(6.000000) translate(-85.288705, -155.695465) translate(79.143453, 146.756917)">
						<polygon id="路径-9" class="st17" points="12.2,1.1 12.2,6.1 1.2,17.5 1.2,12.5 						"/>
						<polygon id="路径-10" class="st11" points="12.2,1.1 11.3,0 0.3,11.1 1.2,12.5 						"/>
						<polygon id="路径-11" class="st18" points="0.3,11.1 1.2,12.5 1.2,17.5 0.3,16.1 						"/>
					</g>

						<g id="编组-5备份" transform="translate(76.826277, 143.885105) rotate(6.000000) translate(-76.826277, -143.885105) translate(70.681025, 134.946558)">
						<polygon id="路径-9_1_" class="st17" points="12.2,1.1 12.2,6.1 1.2,17.5 1.2,12.5 						"/>
						<polygon id="路径-10_1_" class="st11" points="12.2,1.1 11.3,0 0.3,11.1 1.2,12.5 						"/>
						<polygon id="路径-11_1_" class="st18" points="0.3,11.1 1.2,12.5 1.2,17.5 0.3,16.1 						"/>
					</g>

						<g id="编组-5_1_" transform="translate(84.643349, 156.203183) rotate(6.000000) translate(-84.643349, -156.203183) translate(78.136612, 146.629796)">
					</g>

						<g id="编组-5备份_1_" transform="translate(76.257985, 144.291942) rotate(6.000000) translate(-76.257985, -144.291942) translate(69.751248, 134.718555)">
					</g>
				</g>
				<circle id="椭圆形" class="st19" cx="1.7" cy="80" r="1.7"/>
				<path id="形状结合_4_" class="st20" d="M123.7,62.9l-1.2,1.8c-58.4,14.6-97.3,34.8-95.2,51.8c1.2,10,16.5,17.6,41,22.2
					c7.9-8.6,18.3-17.9,30.7-27.5v1.9C87.4,122.2,77.6,131,70,139c9.2,1.6,19.7,2.9,31.2,3.7c1.5,0.7,3.4,1.3,5.5,1.8
					c-14.1-0.8-26.9-2.2-37.8-4.2C55,155.1,49,167.5,53,175.4c8.6,16.9,61.2,8.8,126.8-17.6c0.5,0.3,1,0.6,1.6,1
					c-66.8,27-120.5,35.2-129.6,17.3c-4.2-8.3,1.7-21.1,15.4-36.2c-24.7-4.8-40-12.7-41.3-23.2C23.6,98.5,63.7,77.7,123.7,62.9z
					 M313.3,118.4h5.1c-6.8,2.1-13.9,4.1-21.4,6c-1.4-0.2-2.8-0.4-3.9-0.5C300.2,122.1,306.9,120.3,313.3,118.4z M283.1,105.8v1.7
					c-2.9,1.8-5.8,3.5-8.8,5.3v-1.7C277.3,109.3,280.2,107.6,283.1,105.8z M378.5,9.6c4.7,9.2-3.1,24-20.2,41.3
					c18.9,4.9,30.4,12,31.6,21c1.3,10.4-11.4,21.6-33.7,32.2v-1.6c21.4-10.1,33.4-20.8,32.3-30.4c-1.1-8.6-12.5-15.4-31.3-20.1
					l-0.3,0.3c-4.5,4.5-9.6,9.1-15.3,13.9v-1.9c5-4.3,9.6-8.4,13.7-12.4l0.3-0.3c-4.3-1-9-1.9-14-2.7v-1.5c5.4,0.9,10.5,1.9,15.1,3
					c17.1-17.1,25-31.5,20.6-40.3c-10-19.7-79.9-5.4-160.4,32.2h-3.4C295.9,3.4,367.8-11.5,378.5,9.6z M136.9,84.5v1.8
					c-5.8,3.7-11.4,7.4-16.7,11.1l2-3.1C127,90.9,131.9,87.7,136.9,84.5z M321.1,80.4v1.8c-4.2,3-8.5,6.1-13,9.2l2-3.1
					C313.9,85.6,317.5,83,321.1,80.4z M180.8,58.9v1.7c-8.1,4.3-15.9,8.7-23.4,13.1V72C164.9,67.6,172.7,63.2,180.8,58.9z
					 M180.8,51.6v1.5c-8,1.2-15.8,2.6-23.4,4v-1.5C165,54.1,172.8,52.8,180.8,51.6z M319.5,44.9l-0.9,1.4
					c-13.4-1.1-28.3-1.5-44.3-1.3v-0.5c0-0.3-0.1-0.7-0.2-0.9C290.5,43.3,305.8,43.7,319.5,44.9z"/>
				<path id="形状结合_5_" class="st21" d="M378.5,9.6c4.7,9.2-3.1,24-20.2,41.3c18.9,4.9,30.4,12,31.6,21
					c2.9,24-68.6,52.8-162.4,66.1c-86.9,42.9-164.6,59.9-175.8,38c-4.2-8.3,1.7-21.1,15.4-36.2c-24.7-4.8-40-12.7-41.3-23.2
					c-1.7-13.8,21.1-29.1,58.5-42.2l0.3,1.4c-36.6,12.8-59,27.6-57.4,40.6c1.2,10,16.5,17.6,41,22.2c6.8-7.3,15.4-15.2,25.5-23.4
					l0.3,1.2l0.8-0.2c-9.8,7.9-18.2,15.5-24.9,22.6c34.4,6.1,86.2,6.6,143.3-0.4c4.7-0.6,9.3-1.2,13.8-1.8c2.7-1.4,5.5-2.7,8.3-4.1
					c51.8-26.4,95-56.1,119.9-80.6l0.3-0.3c-2.7-0.6-5.5-1.2-8.4-1.8l-0.4-1.5c3.5,0.6,6.8,1.4,10,2.1c17.1-17.1,25-31.5,20.6-40.3
					c-4.2-8.3-19.2-10.6-41.1-7.6l-0.3-1.4C358.5-1.8,374,0.7,378.5,9.6z M222.9,138.7l-0.4,0.1c-3,0.4-6,0.8-9,1.2
					c-57.7,7.1-110,6.7-144.7,0.2C55,155.1,49,167.5,53,175.4C63.4,195.9,138.4,179.7,222.9,138.7z M357.1,52l-0.3,0.3
					c-25,24.8-68.5,54.8-120.8,81.4c-1.4,0.7-2.9,1.5-4.3,2.2c90.6-13.5,159.5-41.5,156.7-63.9C387.4,63.5,375.9,56.7,357.1,52z"/>
				<circle id="椭圆形_1_" class="st19" cx="135.2" cy="144.2" r="2.2"/>
				<circle id="椭圆形备份-4" class="st19" cx="357" cy="50.9" r="3.9"/>
				<circle id="椭圆形备份" class="st19" cx="43.6" cy="93.9" r="2.2"/>
				<circle id="椭圆形_2_" class="st19" cx="372.1" cy="3.4" r="2.2"/>
				<circle id="椭圆形_3_" class="st19" cx="73.2" cy="50.9" r="1.7"/>
				<circle id="椭圆形_4_" class="st19" cx="293.3" cy="169.4" r="1.7"/>
				<circle id="椭圆形_5_" class="st19" cx="398.3" cy="15.2" r="1.7"/>
			</g>
		</g>
	</g>
</g>
</svg>
