<?xml version="1.0" encoding="utf-8"?>
<!-- Generator: Adobe Illustrator 22.1.0, SVG Export Plug-In . SVG Version: 6.00 Build 0)  -->
<svg version="1.1" id="图层_1" xmlns="http://www.w3.org/2000/svg" xmlns:xlink="http://www.w3.org/1999/xlink" x="0px" y="0px"
	 viewBox="0 0 480 240" style="enable-background:new 0 0 480 240;" xml:space="preserve">
<style type="text/css">
	.st0{fill:url(#Fill-1_1_);}
	.st1{fill:url(#椭圆形备份-5_2_);}
	.st2{fill:url(#矩形_19_);}
	.st3{fill:url(#矩形备份-21_1_);}
	.st4{fill:url(#形状结合_6_);}
	.st5{fill:#EAECEF;}
	.st6{fill:url(#矩形_20_);}
	.st7{fill:#F4F4F5;}
	.st8{fill:#F9F9FA;}
	.st9{fill:#979797;}
	.st10{fill:#E8EAEC;}
	.st11{fill:#F7F8FA;}
	.st12{fill:url(#矩形_21_);}
	.st13{fill:url(#矩形备份-22_1_);}
	.st14{fill:url(#路径-23_1_);}
	.st15{fill:url(#矩形_22_);}
	.st16{fill:#DCDDE0;}
	.st17{fill:url(#路径-19_1_);}
	.st18{fill:url(#形状结合_9_);}
	.st19{fill:#CDCED1;}
	.st20{fill:none;stroke:url(#路径-21_1_);}
	.st21{fill:#C6C7CB;}
	.st22{fill:#D1D2D6;stroke:#EAEDF0;stroke-width:2;}
	.st23{fill:#F9FAFC;}
	.st24{fill:url(#矩形_23_);}
	.st25{fill:#F1F3F5;}
	.st26{fill:#E6E8EB;}
	.st27{fill:#D1D2D6;}
	.st28{fill:url(#椭圆形备份-8_1_);}
	.st29{fill:#EEEFF3;}
	.st30{fill:#D4D6DA;}
	.st31{fill:#E8EAED;stroke:#D9DBDE;}
	.st32{fill:#D8D8D8;stroke:#CFD0D3;}
	.st33{fill:#DDDEE0;}
	.st34{fill:#EEF0F2;}
	.st35{fill:none;stroke:url(#矩形_24_);stroke-width:2;}
	.st36{fill:none;stroke:url(#矩形_25_);stroke-width:0.7;}
	.st37{fill:url(#矩形_26_);}
	.st38{fill:url(#矩形_27_);}
	.st39{fill:url(#矩形_28_);}
	.st40{fill:#959699;fill-opacity:0.12;}
	.st41{fill:#C4C6CC;}
</style>
<g id="页面-1">
	<g id="Exception_x2F_异常提示" transform="translate(-870.000000, -1882.000000)">
		<g id="功能建设类" transform="translate(357.000000, 1751.000000)">
			<g id="编组-11" transform="translate(0.000000, 73.000000)">
				<g id="功能建设类-插图" transform="translate(513.000000, 58.000000)">
					<g id="图案" transform="translate(58.000000, 17.000000)">
						<linearGradient id="Fill-1_1_" gradientUnits="userSpaceOnUse" x1="206.3927" y1="158.529" x2="209.889" y2="191.7948">
							<stop  offset="0" style="stop-color:#FBFCFD"/>
							<stop  offset="1" style="stop-color:#F2F4F7"/>
						</linearGradient>
						<path id="Fill-1" class="st0" d="M143.4,166.4c18.6-4.2,45.5-6.1,63.7-5.1c18.2,0.9,33.3,4.1,34.4,3.4
							c3.6-2.4,11.4-3.5,11-2.6s-5.4,3.9-3.8,4.3s17.8,2.3,24.6,3.7c6.7,1.4,11.1,2.8,12.5,2.8c1.5,0,3.8-2,13.5-1
							c0.2,0.4-2.2,0.5-4.3,1.6c-2.2,1.1-3.7,1-3.7,1.3s1.2-0.4,3.7,1.3c2.5,1.6,7,2.1,7,2.6c0,0.4-5.7,2.3-15.1-0.7
							c-2.4-0.8-8,5.8-33.8,7.7s-69.4,3.3-69.4,3.3s2.6,3.4,6.4,4.3c0.2,0.3-1.5,1.6-8.9,0.2c-7.4-1.4-11.4-4.5-11.4-4.5
							s-14.7-0.9-20.2-1.9c-5.6-0.9-11.9-3.3-16.3-3.7s-24.2-2.8-16.7-8C116.7,175.3,124.7,170.6,143.4,166.4z"/>
						<g id="编组-4" transform="translate(37.000000, 0.000000)">

								<linearGradient id="椭圆形备份-5_2_" gradientUnits="userSpaceOnUse" x1="197.4328" y1="-9.9726" x2="197.4328" y2="-8.9726" gradientTransform="matrix(14.3114 0 0 17.6485 -2812.2903 258.7591)">
								<stop  offset="0" style="stop-color:#EAECEE"/>
								<stop  offset="1" style="stop-color:#CDCFD1"/>
							</linearGradient>
							<path id="椭圆形备份-5" class="st1" d="M13.2,100.4c3.1,0,7.2-6.5,7.2-10.5s-3.2-7.2-7.2-7.2S6.1,86,6.1,89.9
								C6.1,93.9,10.1,100.4,13.2,100.4z"/>

								<linearGradient id="矩形_19_" gradientUnits="userSpaceOnUse" x1="-151.3664" y1="-2.2156" x2="-151.3664" y2="-1.2158" gradientTransform="matrix(1.1009 0 0 79.4182 177.6893 185.9593)">
								<stop  offset="0" style="stop-color:#DCDEE5"/>
								<stop  offset="1" style="stop-color:#B2B5BE"/>
							</linearGradient>
							<rect id="矩形_1_" x="10.5" y="10" class="st2" width="1.1" height="79.4"/>

								<linearGradient id="矩形备份-21_1_" gradientUnits="userSpaceOnUse" x1="-151.3689" y1="-2.2156" x2="-151.3689" y2="-1.2158" gradientTransform="matrix(1.1009 0 0 79.4182 180.992 185.9593)">
								<stop  offset="0" style="stop-color:#DCDEE5"/>
								<stop  offset="1" style="stop-color:#B2B5BE"/>
							</linearGradient>
							<rect id="矩形备份-21" x="13.8" y="10" class="st3" width="1.1" height="79.4"/>

								<g id="编组-3" transform="translate(62.941725, 73.841793) rotate(-39.000000) translate(-62.941725, -73.841793) translate(50.441725, -10.658207)">
								<g id="编组-2" transform="translate(0.000000, 38.513548)">

										<linearGradient id="形状结合_6_" gradientUnits="userSpaceOnUse" x1="93.6991" y1="33.1133" x2="93.6991" y2="34.0924" gradientTransform="matrix(24.5163 -7.574732e-05 7.264147e-05 129.5456 -2278.9958 -4263.5239)">
										<stop  offset="0" style="stop-color:#E4E6E9"/>
										<stop  offset="1" style="stop-color:#CBCED6"/>
									</linearGradient>
									<path id="形状结合" class="st4" d="M24.5,0l0,102.7l0,14l0,12.8H0L0,0L24.5,0z M12.3,123.1l-10,5.3h20.1L12.3,123.1z
										 M23.3,117.3l-9.8,5.1l9.8,5.1L23.3,117.3z M1.2,117.3l0,10.3l9.8-5.1L1.2,117.3z M22,116.7H2.5l9.7,5.1L22,116.7z
										 M12.3,110.4l-9.7,5.1H22L12.3,110.4z M1.2,104.6l0,10.3l9.8-5.1L1.2,104.6z M23.3,104.6l-9.8,5.1l9.8,5.1L23.3,104.6z
										 M22.3,103.9l-20.1,0l10,5.3L22.3,103.9z M12.3,97.5l-10,5.3l20.1,0L12.3,97.5z M1.2,91.6l0,10.3l9.8-5.1L1.2,91.6z
										 M23.3,91.6l-9.8,5.1l9.8,5.1L23.3,91.6z M22,91L2.5,91l9.7,5.1L22,91z M12.3,84.8l-9.7,5.1l19.5,0L12.3,84.8z M1.2,79
										l0,10.3l9.8-5.1L1.2,79z M23.3,79l-9.8,5.1l9.8,5.1L23.3,79z M22.3,78.2H2.2l10,5.3L22.3,78.2z M12.3,71.8L2.2,77l20.1,0
										L12.3,71.8z M1.2,66l0,10.3l9.8-5.1L1.2,66z M23.3,66l-9.8,5.1l9.8,5.1L23.3,66z M22,65.4l-19.5,0l9.7,5.1L22,65.4z
										 M12.3,59.1l-9.7,5.1l19.5,0L12.3,59.1z M1.2,53.3l0,10.3l9.8-5.1L1.2,53.3z M23.3,53.3l-9.8,5.1l9.8,5.1L23.3,53.3z
										 M22.3,52.5l-20.1,0l10,5.3L22.3,52.5z M12.3,46.1l-10,5.3l20.1,0L12.3,46.1z M23.3,40.3l-9.8,5.1l9.8,5.1L23.3,40.3z
										 M1.2,40.3l0,10.3l9.8-5.1L1.2,40.3z M22,39.7l-19.5,0l9.7,5.1L22,39.7z M12.3,33.4l-9.7,5.1l19.5,0L12.3,33.4z M1.2,27.6
										l0,10.3l9.8-5.1L1.2,27.6z M23.3,27.6l-9.8,5.1l9.8,5.1L23.3,27.6z M22.3,26.8l-20.1,0l10,5.3L22.3,26.8z M12.3,20.4
										l-10,5.3l20.1,0L12.3,20.4z M1.2,14.6l0,10.3l9.8-5.1L1.2,14.6z M23.3,14.6l-9.8,5.1l9.8,5.1L23.3,14.6z M22,14L2.5,14
										l9.7,5.1L22,14z M12.3,7.7l-9.7,5.1l19.5,0L12.3,7.7z M1.2,1.9l0,10.3L11,7.1L1.2,1.9z M23.3,1.9L13.5,7l9.8,5.1L23.3,1.9z
										 M22.3,1.2l-20.1,0l10,5.3L22.3,1.2z"/>
								</g>

									<ellipse id="椭圆形" transform="matrix(-0.7771 -0.6293 0.6293 -0.7771 19.1491 14.9201)" class="st5" cx="12.2" cy="4.1" rx="4.1" ry="4.1"/>

									<linearGradient id="矩形_20_" gradientUnits="userSpaceOnUse" x1="115.9711" y1="32.1774" x2="115.9711" y2="33.1774" gradientTransform="matrix(19.8465 3.667631e-05 -8.645036e-06 31.5111 -2283.1047 -1000.0709)">
									<stop  offset="0" style="stop-color:#EBEDF0"/>
									<stop  offset="1" style="stop-color:#E4E6E9"/>
								</linearGradient>
								<polygon id="矩形_2_" class="st6" points="7,5.8 17.5,5.8 22.2,37.3 2.3,37.3 								"/>
								<polygon id="路径-17" class="st7" points="0,38.5 2.3,37.3 22.2,37.3 24.5,38.5 								"/>
								<polygon id="路径-18" class="st8" points="8.2,5.8 8.2,4.6 16.3,4.6 16.3,5.8 								"/>
							</g>
							<path id="形状结合_1_" class="st9" d="M12.7,99.3v7.2v0.1c-0.2,0-0.4-0.1-0.6-0.1c-1.5,0-2.8,1.3-2.8,3s1.2,3,2.8,3
								c1.3,0,2.5-1,2.7-2.4h1.1c-0.3,2-1.9,3.6-3.8,3.6c-2.1,0-3.9-1.9-3.9-4.2c0-2.1,1.4-3.8,3.3-4.1v-6L12.7,99.3L12.7,99.3z"/>
							<path id="椭圆形_1_" class="st10" d="M12.1,100.4c3.1,0,7.2-6.5,7.2-10.5s-3.2-7.2-7.2-7.2S5,86,5,89.9
								C5,93.9,9,100.4,12.1,100.4z"/>
							<rect id="矩形_3_" x="122.8" y="121.4" class="st11" width="102.4" height="2.2"/>

								<linearGradient id="矩形_21_" gradientUnits="userSpaceOnUse" x1="100.0187" y1="-1.1966" x2="100.0187" y2="-0.2166" gradientTransform="matrix(3.4301 0.7291 -14.6403 68.8774 -167.9161 65.3722)">
								<stop  offset="0" style="stop-color:#EAEDF0"/>
								<stop  offset="1" style="stop-color:#E7E7EB"/>
							</linearGradient>
							<path id="矩形_4_" class="st12" d="M191.3,54.1l3.4,0.7l-14.6,68.5c-0.7,0.1-1.3,0.1-1.9,0c-0.5-0.1-1.1-0.4-1.5-0.7
								L191.3,54.1z"/>

								<linearGradient id="矩形备份-22_1_" gradientUnits="userSpaceOnUse" x1="126.5297" y1="5.966" x2="126.5297" y2="6.9462" gradientTransform="matrix(1.6467 3.0971 -42.2724 22.4766 281.2271 -423.6879)">
								<stop  offset="0" style="stop-color:#EFF2F5"/>
								<stop  offset="1" style="stop-color:#E7E7EB"/>
							</linearGradient>
							<path id="矩形备份-22" class="st13" d="M237.4,100.3l1.6,3.1l-39.5,20.7c-0.4,0-1.2-0.1-2.4-0.3c-1.2-0.2-1.9-0.6-2-1
								L237.4,100.3z"/>

								<linearGradient id="路径-23_1_" gradientUnits="userSpaceOnUse" x1="100.5191" y1="-53.1867" x2="100.5191" y2="-52.1867" gradientTransform="matrix(3.3026 0 0 3.3091 -98.6243 278.6146)">
								<stop  offset="0" style="stop-color:#E7E8EB"/>
								<stop  offset="1" style="stop-color:#CACDD1"/>
							</linearGradient>
							<path id="路径-23" class="st14" d="M233.4,102.6l-1.7,0.7c0,0.4,0.2,0.9,0.6,1.5c0.4,0.5,0.8,0.9,1.3,1.1l1.4-0.6
								L233.4,102.6z"/>

								<linearGradient id="矩形_22_" gradientUnits="userSpaceOnUse" x1="221.5281" y1="-8.8653" x2="221.5281" y2="-7.8653" gradientTransform="matrix(83.6667 0 0 19.8545 -18351.1758 312.8161)">
								<stop  offset="0" style="stop-color:#E3E5E8"/>
								<stop  offset="0.9713" style="stop-color:#CDCED1"/>
							</linearGradient>
							<rect id="矩形_5_" x="141.5" y="136.8" class="st15" width="83.7" height="19.9"/>
							<path id="路径-20" class="st16" d="M140.4,156.7h10.2c-0.1-3.1,2-5.2,6.4-6.3s27.1-3.7,68.2-7.9v-3.1v-9.2h-84.8
								L140.4,156.7L140.4,156.7z"/>

								<linearGradient id="路径-19_1_" gradientUnits="userSpaceOnUse" x1="223.0654" y1="-5.3179" x2="223.0654" y2="-4.3264" gradientTransform="matrix(121.0965 0 0 33.0909 -26847.7422 299.5751)">
								<stop  offset="1.187711e-02" style="stop-color:#F3F3F5"/>
								<stop  offset="1" style="stop-color:#E1E3E6"/>
							</linearGradient>
							<path id="路径-19" class="st17" d="M225.2,123.6H104.1v33.1H144c1-4.1,2.8-6.6,5.4-7.5c2.6-0.9,27.9-3.2,75.9-6.9
								L225.2,123.6L225.2,123.6z"/>

								<linearGradient id="形状结合_9_" gradientUnits="userSpaceOnUse" x1="216.2874" y1="-5.3052" x2="216.2874" y2="-4.3255" gradientTransform="matrix(40.7316 0 0 33.0909 -8685.2812 299.5751)">
								<stop  offset="0" style="stop-color:#E4E7EB"/>
								<stop  offset="1" style="stop-color:#D8DADC"/>
							</linearGradient>
							<path id="形状结合_2_" class="st18" d="M144.8,123.6v25.6c0,1-0.7,1.8-1.6,2l-30.5,5.5h-8.6v-33.1H144.8z"/>
							<rect id="矩形_6_" x="129.4" y="156.7" class="st19" width="37.4" height="2.2"/>

								<linearGradient id="路径-21_1_" gradientUnits="userSpaceOnUse" x1="224.2886" y1="-1.6419" x2="225.0738" y2="-1.4702" gradientTransform="matrix(219.0746 0 0 89.3455 -49076.6602 188.1616)">
								<stop  offset="0" style="stop-color:#D5D8DF"/>
								<stop  offset="1" style="stop-color:#B5B8C1"/>
							</linearGradient>
							<polyline id="路径-21" class="st20" points="18.2,12.2 192.9,53.7 237.3,101.5 							"/>
							<path id="路径-22" class="st21" d="M189.9,59.9c0.4,0.3,0.9,0.5,1.4,0.7s1,0.2,1.6,0.1l0.3-1.4l-3-0.8L189.9,59.9z"/>
							<ellipse id="椭圆形_2_" class="st22" cx="193.2" cy="54.1" rx="4.5" ry="4.5"/>
							<rect id="矩形-4" x="122.8" y="123.6" class="st23" width="102.4" height="1.1"/>

								<linearGradient id="矩形_23_" gradientUnits="userSpaceOnUse" x1="210.4035" y1="-3.6982" x2="211.1111" y2="-3.6982" gradientTransform="matrix(26.4211 0 0 41.9151 -5331.103 292.962)">
								<stop  offset="0" style="stop-color:#EFF0F2"/>
								<stop  offset="0.4724" style="stop-color:#F4F5F7"/>
								<stop  offset="1" style="stop-color:#EEF0F2"/>
							</linearGradient>
							<rect id="矩形_7_" x="224.1" y="117" class="st24" width="26.4" height="41.9"/>
							<rect id="矩形_8_" x="223" y="121.4" class="st25" width="1.1" height="3.3"/>
							<rect id="矩形备份-23" x="223" y="124.7" class="st26" width="1.1" height="17.6"/>
							<rect id="矩形_9_" x="223" y="142.3" class="st27" width="1.1" height="14.3"/>
							<ellipse id="椭圆形_3_" class="st23" cx="237.3" cy="117" rx="13.2" ry="2.2"/>

								<linearGradient id="椭圆形备份-8_1_" gradientUnits="userSpaceOnUse" x1="210.4035" y1="-39.3843" x2="211.1111" y2="-39.3843" gradientTransform="matrix(26.4211 0 0 4.4121 -5331.103 332.6674)">
								<stop  offset="0" style="stop-color:#EFF0F2"/>
								<stop  offset="0.4724" style="stop-color:#F4F5F7"/>
								<stop  offset="1" style="stop-color:#EEF0F2"/>
							</linearGradient>
							<ellipse id="椭圆形备份-8" class="st28" cx="237.3" cy="158.9" rx="13.2" ry="2.2"/>
							<path id="矩形_10_" class="st29" d="M236.2,105.9h3.3v10.5c-0.6,0.3-1.1,0.5-1.7,0.5s-1.1-0.2-1.7-0.5L236.2,105.9
								L236.2,105.9z"/>
							<path id="路径-24" class="st30" d="M236.2,106v1.7c0.4,0.3,1,0.4,1.7,0.4s1.2-0.1,1.7-0.4v-1.8L236.2,106z"/>
							<ellipse id="椭圆形备份-9" class="st22" cx="237.3" cy="102.6" rx="4.5" ry="4.5"/>
							<g id="编组-6" transform="translate(69.937516, 158.870594)">
								<ellipse id="椭圆形_4_" class="st31" cx="11.1" cy="11" rx="8.8" ry="8.7"/>
								<ellipse id="椭圆形备份-10" class="st31" cx="141.9" cy="11" rx="8.8" ry="8.7"/>
								<path id="矩形_11_" class="st32" d="M11.1,10.9h7c0.7,0,1.2,0.6,1.2,1.2l0,0c0,0.7-0.6,1.2-1.2,1.2h-7
									c-0.7,0-1.2-0.6-1.2-1.2l0,0C9.8,11.5,10.4,10.9,11.1,10.9z"/>
								<path id="矩形_12_" class="st32" d="M134.9,10.9h7c0.7,0,1.2,0.6,1.2,1.2l0,0c0,0.7-0.6,1.2-1.2,1.2h-7
									c-0.7,0-1.2-0.6-1.2-1.2l0,0C133.7,11.5,134.3,10.9,134.9,10.9z"/>
								<path id="矩形_13_" class="st33" d="M10.9,9.8h131.3c0.8,0,1.5,0.7,1.5,1.5v0.5c0,0.8-0.7,1.5-1.5,1.5H10.9
									c-0.8,0-1.5-0.7-1.5-1.5v-0.5C9.4,10.5,10.1,9.8,10.9,9.8z"/>
								<path id="形状结合_3_" class="st34" d="M142.2,9.8c0.7,0,1.3,0.5,1.5,1.2H9.4c0.2-0.7,0.7-1.2,1.5-1.2H142.2z"/>

									<linearGradient id="矩形_24_" gradientUnits="userSpaceOnUse" x1="83.8703" y1="-8.7587" x2="83.8703" y2="-7.7734" gradientTransform="matrix(151.0219 0 0 20.0606 -12589.7578 176.9999)">
									<stop  offset="0" style="stop-color:#D7D8DB"/>
									<stop  offset="1" style="stop-color:#D0D3D6"/>
								</linearGradient>
								<path id="矩形_14_" class="st35" d="M10.5,1h132c5.2,0,9.5,4.3,9.5,9.5v1.1c0,5.2-4.3,9.5-9.5,9.5h-132
									c-5.2,0-9.5-4.3-9.5-9.5v-1.1C1,5.3,5.3,1,10.5,1z"/>

									<linearGradient id="矩形_25_" gradientUnits="userSpaceOnUse" x1="83.8129" y1="-10.3844" x2="83.8129" y2="-9.4242" gradientTransform="matrix(147.9184 0 0 16.9485 -12320.917 178.5564)">
									<stop  offset="0" style="stop-color:#CDCED1"/>
									<stop  offset="1" style="stop-color:#EEEFF1"/>
								</linearGradient>
								<path id="矩形_15_" class="st36" d="M10.1,2.6H143c4.1,0,7.5,3.4,7.5,7.5V12c0,4.1-3.4,7.5-7.5,7.5H10.1
									c-4.1,0-7.5-3.4-7.5-7.5v-1.9C2.6,5.9,5.9,2.6,10.1,2.6z"/>
							</g>

								<linearGradient id="矩形_26_" gradientUnits="userSpaceOnUse" x1="216.5575" y1="-4.354" x2="216.5575" y2="-3.354" gradientTransform="matrix(41.8333 0 0 40.4227 -8936.4668 291.8492)">
								<stop  offset="0" style="stop-color:#F0F1F2"/>
								<stop  offset="1" style="stop-color:#E6E8EB"/>
							</linearGradient>
							<path id="矩形_16_" class="st37" d="M115.9,115.9h25.8c1.1,0,2,0.9,2,2v29.7c0,1-0.7,1.8-1.6,2l-37.8,6.8
								c-1.1,0.2-2.1-0.5-2.3-1.6c0-0.1,0-0.2,0-0.4V130C101.9,122.1,108.1,115.9,115.9,115.9z"/>

								<linearGradient id="矩形_27_" gradientUnits="userSpaceOnUse" x1="204.2732" y1="-7.978" x2="204.2732" y2="-6.978" gradientTransform="matrix(18.7149 0 0 22.0606 -3708.4031 295.1615)">
								<stop  offset="0" style="stop-color:#E6E8EB"/>
								<stop  offset="1" style="stop-color:#D7D9DC"/>
							</linearGradient>
							<path id="矩形_17_" class="st38" d="M115.2,119.2h8.7l0,0v20.9l-18.7,1.2v-12.1C105.2,123.6,109.6,119.2,115.2,119.2z"/>

								<linearGradient id="矩形_28_" gradientUnits="userSpaceOnUse" x1="197.4332" y1="-8.398" x2="197.4332" y2="-7.398" gradientTransform="matrix(14.3114 0 0 20.9576 -2692.2952 295.1579)">
								<stop  offset="0" style="stop-color:#E6E8EB"/>
								<stop  offset="1" style="stop-color:#D7D9DC"/>
							</linearGradient>
							<path id="矩形_18_" class="st39" d="M126.1,119.2h13.3c0.6,0,1,0.4,1,1V139l0,0l-14.3,1.2
								C126.1,140.2,126.1,119.2,126.1,119.2z"/>
						</g>
						<path id="形状结合_4_" class="st40" d="M192.2,169.8c87.5-7.7,156.8-33,154.7-56.7c-2.1-23.6-74.7-36.6-162.2-29
							S28,117.2,30,140.9S104.7,177.5,192.2,169.8z M192.2,168.8c-86.9,7.6-159.1-5.3-161.1-28s66.9-48,153.8-55.6
							s159.1,5.3,161.1,28C347.9,136,279,161.2,192.2,168.8z"/>
						<path id="形状结合_5_" class="st40" d="M235.3,51.9c45.1-17.3,79.9-21.2,88-7.3c12,20.8-40.2,73.4-116.5,117.5
							s-148,63-160,42.1S87,130.8,163.3,86.7C184.6,74.5,205.6,64.1,225,56c0.1,0.3,0.3,0.6,0.4,0.9C206,65,185,75.3,163.7,87.6
							C87.9,131.5,36,183.8,47.6,203.8s82.8,1.3,158.7-42.5S334,65.2,322.4,45.2c-7.7-13.4-42.2-9.4-86.8,7.8
							C235.5,52.6,235.4,52.3,235.3,51.9L235.3,51.9z"/>
						<g id="编组-9" transform="translate(0.000000, 38.000000)">
							<ellipse id="椭圆形_5_" class="st41" cx="303.1" cy="50.2" rx="2.8" ry="2.8"/>
							<ellipse id="椭圆形_6_" class="st41" cx="316.3" cy="1.7" rx="1.7" ry="1.7"/>
							<ellipse id="椭圆形_7_" class="st41" cx="121.6" cy="136.2" rx="2.8" ry="2.8"/>
							<ellipse id="椭圆形_8_" class="st41" cx="33" cy="90.4" rx="1.1" ry="1.1"/>
							<ellipse id="椭圆形_9_" class="st41" cx="290.5" cy="114.7" rx="1.1" ry="1.1"/>
							<ellipse id="椭圆形_10_" class="st41" cx="70.4" cy="35.3" rx="2.2" ry="2.2"/>
							<ellipse id="椭圆形备份-6" class="st41" cx="1.7" cy="68.9" rx="1.7" ry="1.7"/>
							<ellipse id="椭圆形备份-5_1_" class="st41" cx="233.8" cy="159.3" rx="1.7" ry="1.7"/>
						</g>
					</g>
				</g>
			</g>
		</g>
	</g>
</g>
</svg>
