<?xml version="1.0" encoding="utf-8"?>
<!-- Generator: Adobe Illustrator 22.1.0, SVG Export Plug-In . SVG Version: 6.00 Build 0)  -->
<svg version="1.1" id="图层_1" xmlns="http://www.w3.org/2000/svg" xmlns:xlink="http://www.w3.org/1999/xlink" x="0px" y="0px"
	 viewBox="0 0 480 240" style="enable-background:new 0 0 480 240;" xml:space="preserve">
<style type="text/css">
	.st0{fill:url(#Fill-1_1_);}
	.st1{fill:url(#路径-3_1_);}
	.st2{fill:url(#形状结合_2_);}
	.st3{fill:#C4C6CC;}
</style>
<linearGradient id="Fill-1_1_" gradientUnits="userSpaceOnUse" x1="241.4427" y1="84.9601" x2="247.5184" y2="50.5028" gradientTransform="matrix(1 0 0 -1 0 240)">
	<stop  offset="0" style="stop-color:#FBFCFD"/>
	<stop  offset="1" style="stop-color:#F0F2F5"/>
</linearGradient>
<path id="Fill-1" class="st0" d="M188,164.7c16.3-3.7,39.7-5.3,55.6-4.5s29.1,3.6,30,2.9c3.2-2.1,10-3,9.6-2.2
	c-0.3,0.8-4.7,3.4-3.3,3.8c1.4,0.4,15.6,2,21.5,3.3c5.9,1.2,9.7,2.4,11,2.4s3.3-1.7,11.8-0.9c0.2,0.3-1.9,0.4-3.8,1.4
	s-3.3,0.9-3.3,1.1s1.1-0.3,3.3,1.1c2.2,1.4,6.1,1.9,6.1,2.2s-4.9,2-13.2-0.6c-2.1-0.7-7,5.1-29.5,6.7s-60.5,2.9-60.5,2.9
	s2.3,2.9,5.6,3.8c0.2,0.3-1.3,1.4-7.8,0.2s-9.9-3.9-9.9-3.9s-12.8-0.8-17.6-1.6s-10.4-2.9-14.2-3.3c-3.8-0.4-21.1-2.4-14.5-6.9
	C164.7,172.5,171.7,168.4,188,164.7z"/>
<linearGradient id="路径-3_1_" gradientUnits="userSpaceOnUse" x1="412.5606" y1="-3.1133" x2="412.5606" y2="-2.1773" gradientTransform="matrix(105.6 0 0 56.32 -43326.4023 278.4001)">
	<stop  offset="0" style="stop-color:#E6E8EB;stop-opacity:0.9917"/>
	<stop  offset="1" style="stop-color:#D4D6D9"/>
</linearGradient>
<polygon id="路径-3" class="st1" points="187.2,137.6 210.7,102.4 269.3,102.4 292.8,137.6 292.8,158.7 187.2,158.7 "/>
<linearGradient id="形状结合_2_" gradientUnits="userSpaceOnUse" x1="412.5606" y1="-5" x2="412.5606" y2="-4.0079" gradientTransform="matrix(105.6 0 0 35.2 -43326.4023 313.6004)">
	<stop  offset="0" style="stop-color:#EDEFF2"/>
	<stop  offset="1" style="stop-color:#E8EAED"/>
</linearGradient>
<path id="形状结合" class="st2" d="M212.6,172.8h-23.4c-1.1,0-2-0.9-2-2v-33.2h23.4c1.1,0,2,0.9,2,2v7.4c0,1.1,0.8,1.9,1.9,2
	h0.1h50.8c1.1,0,1.9-0.8,2-1.9V147v-7.4c0-1.1,0.9-2,2-2h23.4v33.2c0,1.1-0.9,2-2,2h-23.4H212.6z"/>
<path id="形状结合_1_" class="st3" d="M182.4,169.6v8h8v1.6h-9.6v-9.6H182.4z"/>
<path id="形状结合备份" class="st3" d="M289.6,177.6h8v-8h1.6v9.6h-9.6V177.6z"/>
<g id="编组-4" transform="translate(91.688890, 11.874936) rotate(21.000000) translate(-91.688890, -11.874936) translate(90.888890, 0.674936)">

		<rect id="矩形_1_" x="183.1" y="24.5" transform="matrix(5.449899e-06 1 -1 5.449899e-06 209.9379 -159.3938)" class="st3" width="3.2" height="1.6"/>

		<rect id="矩形备份-6" x="183.1" y="30.9" transform="matrix(5.449898e-06 1 -1 5.449898e-06 216.3378 -152.9939)" class="st3" width="3.2" height="1.6"/>

		<rect id="矩形备份-7" x="183.1" y="37.3" transform="matrix(5.449898e-06 1 -1 5.449898e-06 222.7379 -146.5939)" class="st3" width="3.2" height="1.6"/>

		<rect id="矩形备份-8" x="183.1" y="43.7" transform="matrix(5.449899e-06 1 -1 5.449899e-06 229.1379 -140.1939)" class="st3" width="3.2" height="1.6"/>
</g>
<g id="编组-3" transform="translate(36.000000, 27.200000) rotate(-32.000000) translate(-36.000000, -27.200000) translate(35.200000, 12.800000)">

		<rect id="矩形_2_" x="91.7" y="161.1" transform="matrix(-1 5.426337e-06 -5.426337e-06 -1 185.0753 325.4438)" class="st3" width="1.6" height="3.2"/>

		<rect id="矩形备份-2" x="91.7" y="167.5" transform="matrix(-1 5.426336e-06 -5.426336e-06 -1 185.0755 338.2438)" class="st3" width="1.6" height="3.2"/>

		<rect id="矩形备份-3" x="91.7" y="173.9" transform="matrix(-1 5.426336e-06 -5.426336e-06 -1 185.0755 351.0439)" class="st3" width="1.6" height="3.2"/>

		<rect id="矩形备份-4" x="91.7" y="180.3" transform="matrix(-1 5.426336e-06 -5.426336e-06 -1 185.0755 363.8438)" class="st3" width="1.6" height="3.2"/>

		<rect id="矩形备份-5" x="91.7" y="186.7" transform="matrix(-1 5.426337e-06 -5.426337e-06 -1 185.0755 376.6438)" class="st3" width="1.6" height="3.2"/>
</g>
<circle id="椭圆形" class="st3" cx="268.8" cy="94.4" r="1.6"/>
<circle id="椭圆形备份" class="st3" cx="227.2" cy="120" r="1.6"/>
</svg>
