<?xml version="1.0" encoding="utf-8"?>
<!-- Generator: Adobe Illustrator 22.1.0, SVG Export Plug-In . SVG Version: 6.00 Build 0)  -->
<svg version="1.1" id="图层_2_1_" xmlns="http://www.w3.org/2000/svg" xmlns:xlink="http://www.w3.org/1999/xlink" x="0px"
	 y="0px" viewBox="0 0 480 240" style="enable-background:new 0 0 480 240;" xml:space="preserve">
<style type="text/css">
	.st0{fill:url(#形状结合_3_);}
	.st1{fill:url(#形状结合_7_);}
	.st2{fill:#C4C6CC;}
	.st3{fill:url(#形状结合_9_);}
	.st4{fill:url(#形状结合_10_);fill-opacity:0.6;}
	.st5{fill:url(#形状结合_11_);}
	.st6{fill:url(#路径-3_1_);}
	.st7{fill:url(#形状结合_12_);}
	.st8{fill:url(#路径-3_4_);}
	.st9{fill:url(#形状结合_13_);}
	.st10{fill:url(#形状结合_15_);}
	.st11{fill:#979BA5;}
	.st12{fill:url(#SVGID_1_);}
	.st13{fill:url(#SVGID_2_);}
	.st14{fill:url(#形状结合_16_);}
	.st15{fill:url(#形状结合备份-2_2_);}
	.st16{fill:#343434;fill-opacity:0.1;}
</style>
<g id="页面-1">
	<g id="Exception_x2F_异常提示_x2F_灰白对比" transform="translate(-924.000000, -707.000000)">
		<g id="需要登录" transform="translate(924.000000, 707.000000)">

				<linearGradient id="形状结合_3_" gradientUnits="userSpaceOnUse" x1="1019.9006" y1="-8.3354" x2="1019.9006" y2="-7.3367" gradientTransform="matrix(200.0257 0 0 58.3047 -203759.5469 663.9944)">
				<stop  offset="0" style="stop-color:#F5F6F7"/>
				<stop  offset="1" style="stop-color:#F7F9FC"/>
			</linearGradient>
			<path id="形状结合_30_" class="st0" d="M249.6,178v8.7c0,2.5,2.1,4.6,4.6,4.6s4.5,1.9,4.6,4.4v0.2v0.9
				c1.1-0.5,2.3-0.8,3.5-0.8c4.3,0,7.8,3.2,8.4,7.3c1-0.8,2.2-1.3,3.6-1.3c1.2,0,2.3,0.4,3.2,1c2.3-4.2,6.7-7,11.8-7
				c7.2,0,13,5.6,13.5,12.7c4.9,0.7,10.1,1.5,13.3,2.1c7.2,1.5,11.8,3,13.4,3s4-2.1,14.5-1.1c0.2,0.4-2.3,0.5-4.7,1.7s-4,1.1-4,1.4
				s1.3-0.4,4,1.3s7.5,2.3,7.5,2.8s-6.1,2.4-16.2-0.8c-2.6-0.8-8.6,6.2-36.1,8.2c-27.6,2-74.2,3.5-74.2,3.5s2.8,3.6,6.9,4.6
				c0.2,0.4-1.6,1.7-9.6,0.2c-7.9-1.5-12.2-4.8-12.2-4.8s-15.7-1-21.6-2c-5.9-1-12.7-3.5-17.4-4s-25.9-3-17.8-8.5
				c0,0,7.2-4.2,23.6-8.3c2-3.5,5.7-5.9,10.1-5.9c2.7,0,5.2,0.9,7.1,2.5c1.4-0.2,2.9-0.4,4.4-0.6c1.2-1.1,2.8-1.8,4.5-1.8
				c1.2,0,2.3,0.3,3.2,0.9l0.5-0.1c1-3.9,4.5-6.8,8.7-6.8c2.8,0,5.4,1.3,7,3.3v-2.8c0-2.9,2.4-5.3,5.3-5.3c2.8,0,5.2-2.2,5.3-5.1
				v-0.2v-8L249.6,178L249.6,178z"/>

				<linearGradient id="形状结合_7_" gradientUnits="userSpaceOnUse" x1="1003.2384" y1="-43.6818" x2="1003.9461" y2="-43.6818" gradientTransform="matrix(44 0 0 11 -43919.1992 655.5)">
				<stop  offset="0" style="stop-color:#E2E3E6"/>
				<stop  offset="0.4543" style="stop-color:#ECEEF0"/>
				<stop  offset="1" style="stop-color:#E2E4E6"/>
			</linearGradient>
			<path id="形状结合_29_" class="st1" d="M216.8,169.5h44v6c0,2.8-9.8,5-22,5s-22-2.2-22-5l0,0L216.8,169.5L216.8,169.5z"/>
			<path id="形状结合备份_1_" class="st2" d="M216.8,165h44v6c0,2.8-9.8,5-22,5s-22-2.2-22-5l0,0L216.8,165L216.8,165z"/>

				<linearGradient id="形状结合_9_" gradientUnits="userSpaceOnUse" x1="947.4888" y1="-8.3848" x2="948.1863" y2="-8.3848" gradientTransform="matrix(12 0 0 54.7 -11177.2002 581.2991)">
				<stop  offset="0" style="stop-color:#F1F3F5"/>
				<stop  offset="0.4576" style="stop-color:#F4F5F7"/>
				<stop  offset="1" style="stop-color:#ECEEF0"/>
			</linearGradient>
			<path id="形状结合_28_" class="st3" d="M196.8,95.3c1.8,0,6,8.3,6,11.7l0,0v43h-12v-43v-0.2C190.9,103.4,195,95.3,196.8,95.3
				z"/>

				<linearGradient id="形状结合_10_" gradientUnits="userSpaceOnUse" x1="947.8464" y1="-19.8282" x2="947.827" y2="-19.6418" gradientTransform="matrix(12 0 0 24.2 -11093.2002 602.9993)">
				<stop  offset="0" style="stop-color:#CDD0D2;stop-opacity:0"/>
				<stop  offset="1" style="stop-color:#CDD0D2"/>
			</linearGradient>
			<polygon id="形状结合_26_" class="st4" points="274.8,117 274.8,132.6 279.7,141.2 286.8,135.4 286.8,126 			"/>

				<linearGradient id="形状结合_11_" gradientUnits="userSpaceOnUse" x1="948.1716" y1="-8.3848" x2="947.4741" y2="-8.3848" gradientTransform="matrix(12 0 0 54.7 -11093.2002 581.2991)">
				<stop  offset="0" style="stop-color:#F1F3F5"/>
				<stop  offset="0.4576" style="stop-color:#F4F5F7"/>
				<stop  offset="1" style="stop-color:#ECEEF0"/>
			</linearGradient>
			<path id="形状结合_25_" class="st5" d="M280.8,95.3c-1.8,0-6,8.3-6,11.7l0,0v43h12v-43v-0.2
				C286.6,103.4,282.5,95.3,280.8,95.3z"/>
			<g id="编组_3_" transform="translate(80.760499, 77.000000)">

					<linearGradient id="路径-3_1_" gradientUnits="userSpaceOnUse" x1="514.3141" y1="-6.8905" x2="514.3943" y2="-6.5204" gradientTransform="matrix(36 0 0 66 -18395.7324 506)">
					<stop  offset="0" style="stop-color:#E8E9EB"/>
					<stop  offset="1" style="stop-color:#D7D8DB"/>
				</linearGradient>
				<path id="路径-3_3_" class="st6" d="M135,20c-1.4,7-4.5,13.3-9.4,19.1c-7.3,8.7-15.2,13.6-18.4,23.8
					c-2.1,6.8-3.2,12.9-3.2,18.3l32.1,4.8l3.9-4.8L135,20z"/>

					<linearGradient id="形状结合_12_" gradientUnits="userSpaceOnUse" x1="469.125" y1="-6.98" x2="469.1263" y2="-6.9681" gradientTransform="matrix(13 0 0 64.5 -5965.6816 507.5)">
					<stop  offset="0" style="stop-color:#EBEDEF;stop-opacity:0"/>
					<stop  offset="1" style="stop-color:#C8CACC"/>
				</linearGradient>
				<path id="形状结合_24_" class="st7" d="M135.2,21.5l4.8,59.7l-3.9,4.8l-9.1-1.4l3.3-52.2c2-3.5,3.4-7.1,4.4-10.9
					C134.7,21.5,135.2,21.5,135.2,21.5z"/>
			</g>

				<g id="编组_2_" transform="translate(171.000000, 110.000000) scale(-1, 1) translate(-171.000000, -110.000000) translate(153.000000, 77.000000)">

					<linearGradient id="路径-3_4_" gradientUnits="userSpaceOnUse" x1="26.1195" y1="-6.7506" x2="26.1998" y2="-6.3805" gradientTransform="matrix(36 0 0 66 -1024 506)">
					<stop  offset="0" style="stop-color:#E8E9EB"/>
					<stop  offset="1" style="stop-color:#D7D8DB"/>
				</linearGradient>
				<path id="路径-3_2_" class="st8" d="M-73,20c-1.4,7-4.5,13.3-9.4,19.1c-7.3,8.7-15.2,13.6-18.4,23.8
					c-2.1,6.8-3.2,12.9-3.2,18.3l32.1,4.8l3.9-4.8L-73,20z"/>
			</g>

				<linearGradient id="形状结合_13_" gradientUnits="userSpaceOnUse" x1="659.6453" y1="-6.98" x2="659.6465" y2="-6.968" gradientTransform="matrix(-13 0 0 64.5 8839.2148 584.5)">
				<stop  offset="0" style="stop-color:#EBEDEF;stop-opacity:0"/>
				<stop  offset="1" style="stop-color:#C8CACC"/>
			</linearGradient>
			<path id="形状结合_2_" class="st9" d="M261.6,98.5l-4.8,59.7l3.9,4.8l9.1-1.4l-3.3-52.2c-2-3.5-3.4-7.1-4.4-10.9
				C262.1,98.5,261.6,98.5,261.6,98.5z"/>

				<linearGradient id="形状结合_15_" gradientUnits="userSpaceOnUse" x1="1004.9811" y1="-2.6558" x2="1005.6887" y2="-2.6558" gradientTransform="matrix(48 0 0 154 -48017.1992 506)">
				<stop  offset="0" style="stop-color:#EAEBED"/>
				<stop  offset="0.4543" style="stop-color:#F4F5F7"/>
				<stop  offset="1" style="stop-color:#EEF0F2"/>
			</linearGradient>
			<path id="形状结合_18_" class="st10" d="M238.8,20c7,0,24,27.7,24,41l0,0v106c0,0.1,0,0.2,0,0.3s0,0.2,0,0.2
				c0,3.6-10.7,6.5-24,6.5s-24-2.9-24-6.5c0-0.1,0-0.2,0-0.2c0-0.1,0-0.2,0-0.3V61v-0.4C215.1,47.2,231.8,20,238.8,20z"/>
			<g>
				<circle id="椭圆形_7_" class="st11" cx="238.8" cy="71" r="9.5"/>

					<linearGradient id="SVGID_1_" gradientUnits="userSpaceOnUse" x1="976.079" y1="-25.3334" x2="976.079" y2="-24.8244" gradientTransform="matrix(19 0 0 19 -18306.6992 547.5)">
					<stop  offset="0" style="stop-color:#E1E2E6"/>
					<stop  offset="1" style="stop-color:#F0F2F5"/>
				</linearGradient>
				<path class="st12" d="M238.8,81c-5.5,0-10-4.5-10-10s4.5-10,10-10s10,4.5,10,10S244.3,81,238.8,81z M238.8,62c-5,0-9,4-9,9
					s4,9,9,9s9-4,9-9S243.8,62,238.8,62z"/>
			</g>
			<g>
				<circle id="椭圆形备份-11_1_" class="st11" cx="238.8" cy="89" r="3.5"/>

					<linearGradient id="SVGID_2_" gradientUnits="userSpaceOnUse" x1="893.0715" y1="-69.2048" x2="893.0715" y2="-68.6522" gradientTransform="matrix(7 0 0 7 -6012.7002 571.5)">
					<stop  offset="0" style="stop-color:#E1E2E6"/>
					<stop  offset="1" style="stop-color:#F0F2F5"/>
				</linearGradient>
				<path class="st13" d="M238.8,93c-2.2,0-4-1.8-4-4s1.8-4,4-4s4,1.8,4,4S241,93,238.8,93z M238.8,86c-1.7,0-3,1.3-3,3s1.3,3,3,3
					s3-1.3,3-3S240.5,86,238.8,86z"/>
			</g>

				<linearGradient id="形状结合_16_" gradientUnits="userSpaceOnUse" x1="1004.9811" y1="-70.9706" x2="1005.6854" y2="-70.9706" gradientTransform="matrix(48 0 0 6.8 -48017.1992 624.0004)">
				<stop  offset="0" style="stop-color:#E2E3E6"/>
				<stop  offset="0.4766" style="stop-color:#FBFDFF"/>
				<stop  offset="1" style="stop-color:#E2E4E6"/>
			</linearGradient>
			<path id="形状结合_14_" class="st14" d="M262.8,138v2.5c-3.9,2.5-13.2,4.3-24,4.3s-20.1-1.8-24-4.3V138l0,0
				c0.6,2.8,11.1,5.5,24,5.5S262.2,140.8,262.8,138L262.8,138z"/>

				<linearGradient id="形状结合备份-2_2_" gradientUnits="userSpaceOnUse" x1="1004.9811" y1="-70.9706" x2="1005.6854" y2="-70.9706" gradientTransform="matrix(48 0 0 6.8 -48017.1992 629.0004)">
				<stop  offset="0" style="stop-color:#E2E3E6"/>
				<stop  offset="0.4766" style="stop-color:#FBFDFF"/>
				<stop  offset="1" style="stop-color:#E2E4E6"/>
			</linearGradient>
			<path id="形状结合备份-2_1_" class="st15" d="M262.8,143v2.5c-3.9,2.5-13.2,4.3-24,4.3s-20.1-1.8-24-4.3V143l0,0
				c0.6,2.8,11.1,5.5,24,5.5S262.2,145.8,262.8,143L262.8,143z"/>
			<path id="形状结合_8_" class="st16" d="M262.8,73c43.2-8.6,77.1-6.3,80.9,6.7c4.6,15.9-37.4,41.9-93.6,58.1
				s-105.6,16.3-110.2,0.4c-4-14.1,28.4-36.1,74.9-52.1v1.1c-45.8,15.9-77.7,37.5-73.9,50.8c4.3,15.1,53.2,14.9,108.9-1.1
				s97.3-41.7,92.9-56.8c-3.5-12.4-37.2-14.5-79.9-6V73L262.8,73z"/>
			<path id="形状结合_1_" class="st16" d="M105.2,76c3.8-14,50.7-14,109.5-1.1v1c-58.3-12.8-105-12.9-108.6,0.3
				c-4,15.1,49.1,43.2,118.5,61.8s129.5,20.9,133.6,5.8c3.6-13.4-37.7-37-95.6-55.1v-1.1c58.6,18.3,100.3,42.2,96.5,56.4
				c-4.3,16-64.6,13.7-134.8-5.1S101,92,105.2,76z"/>
			<circle id="椭圆形_6_" class="st2" cx="317.8" cy="109" r="2"/>
			<circle id="椭圆形_5_" class="st2" cx="117.3" cy="121.5" r="1.5"/>
			<circle id="椭圆形_4_" class="st2" cx="281.8" cy="58" r="1"/>
			<circle id="椭圆形_3_" class="st2" cx="191.8" cy="164" r="1"/>
			<circle id="椭圆形_1_" class="st2" cx="351.8" cy="150" r="2"/>
		</g>
	</g>
</g>
</svg>
