<?xml version="1.0" encoding="utf-8"?>
<!-- Generator: Adobe Illustrator 23.0.2, SVG Export Plug-In . SVG Version: 6.00 Build 0)  -->
<svg version="1.1" id="图层_1" xmlns="http://www.w3.org/2000/svg" xmlns:xlink="http://www.w3.org/1999/xlink" x="0px" y="0px"
	 viewBox="0 0 171 40" style="enable-background:new 0 0 171 40;" xml:space="preserve">
<style type="text/css">
	.st0{fill:#0647FF;}
</style>
<path class="st0" d="M17.1,1.1l16.1,9.3v19.1l-16.1,9.3L0.9,29.5V10.4L17.1,1.1 M17.1,0L0,9.9V30l17.1,9.9L34.1,30V9.9L17.1,0
	L17.1,0z"/>
<polygon class="st0" points="0,19.7 0,30.1 8.5,35 8.5,14.8 "/>
<polygon class="st0" points="34.1,9.9 25.6,4.9 17.1,9.9 17.1,19.7 17.1,39.9 25.6,35 25.6,14.8 34.1,9.9 "/>
<g>
	<path d="M52.2,12.2h-6.4V9.4H62v2.9h-6.4v18.9h-3.4V12.2z"/>
	<path d="M65,9.8c0-1.2,0.9-2,2.2-2c1.2,0,2.2,0.8,2.2,2c0,1.2-0.9,2-2.2,2C65.9,11.8,65,11,65,9.8z M65.5,14.9h3.4v16.3h-3.4V14.9z
		"/>
	<path d="M80.9,9.4h5.6c6.7,0,10.5,3.7,10.5,10.8c0,7.1-3.8,11-10.3,11h-5.8V9.4z M86.3,28.3c4.7,0,7.2-2.7,7.2-8.2
		c0-5.4-2.5-8-7.2-8h-2v16.2H86.3z"/>
	<path d="M100.1,23c0-5.3,3.6-8.6,7.4-8.6c4.3,0,6.6,3.1,6.6,7.7c0,0.7-0.1,1.3-0.1,1.7h-10.5c0.3,3.1,2.2,5,5,5
		c1.4,0,2.7-0.4,3.9-1.2l1.2,2.2c-1.5,1-3.4,1.7-5.5,1.7C103.6,31.5,100.1,28.4,100.1,23z M111.2,21.6c0-2.8-1.3-4.4-3.6-4.4
		c-2,0-3.8,1.6-4.2,4.4H111.2z"/>
	<path d="M116.2,29.3l1.6-2.2c1.4,1.2,2.9,1.9,4.6,1.9c1.9,0,2.9-0.9,2.9-2.2c0-1.5-1.8-2.1-3.6-2.8c-2.2-0.8-4.6-2-4.6-4.7
		c0-2.7,2.2-4.8,5.8-4.8c2.2,0,4,0.9,5.3,1.9l-1.6,2.1c-1.1-0.8-2.3-1.4-3.6-1.4c-1.8,0-2.6,0.9-2.6,2c0,1.4,1.7,1.9,3.5,2.6
		c2.3,0.9,4.8,1.9,4.8,4.9c0,2.7-2.2,4.9-6.2,4.9C120.1,31.5,117.8,30.6,116.2,29.3z"/>
	<path d="M131.7,9.8c0-1.2,0.9-2,2.2-2c1.2,0,2.2,0.8,2.2,2c0,1.2-0.9,2-2.2,2C132.6,11.8,131.7,11,131.7,9.8z M132.1,14.9h3.4v16.3
		h-3.4V14.9z"/>
	<path d="M139.4,34.1c0-1.4,0.9-2.6,2.4-3.5v-0.1c-0.8-0.5-1.5-1.4-1.5-2.7c0-1.3,0.9-2.4,1.8-3v-0.1c-1.1-0.9-2.1-2.4-2.1-4.3
		c0-3.7,2.9-5.9,6.3-5.9c0.9,0,1.7,0.2,2.4,0.4h5.8v2.5h-3.1c0.6,0.7,1.1,1.7,1.1,3c0,3.5-2.7,5.6-6.1,5.6c-0.7,0-1.6-0.2-2.3-0.5
		c-0.5,0.5-0.9,0.9-0.9,1.7c0,1,0.7,1.6,2.7,1.6h3c3.8,0,5.8,1.2,5.8,4c0,3.1-3.3,5.7-8.5,5.7C142.3,38.4,139.4,37,139.4,34.1z
		 M151.4,33.3c0-1.4-1.1-1.8-3-1.8h-2.5c-0.8,0-1.5-0.1-2.2-0.2c-1,0.7-1.4,1.5-1.4,2.4c0,1.6,1.7,2.5,4.3,2.5
		C149.5,36.2,151.4,34.8,151.4,33.3z M149.4,20.3c0-2.2-1.4-3.5-3.1-3.5c-1.7,0-3.1,1.2-3.1,3.5c0,2.2,1.4,3.5,3.1,3.5
		C148,23.8,149.4,22.5,149.4,20.3z"/>
	<path d="M157.7,14.9h2.8l0.3,2.2h0.1c1.5-1.4,3.2-2.7,5.4-2.7c3.5,0,5,2.3,5,6.4v10.2h-3.4v-9.8c0-2.8-0.8-3.9-2.7-3.9
		c-1.5,0-2.5,0.8-4,2.2v11.5h-3.4V14.9z"/>
</g>
</svg>
